<mxfile host="app.diagrams.net" modified="2023-10-07T14:29:38.043Z" agent="Mozilla/5.0 (Windows NT 10.0; Win64; x64) AppleWebKit/537.36 (KHTML, like Gecko) Chrome/117.0.0.0 Safari/537.36" etag="OKTJR8iuIV8ooaH56Y4J" version="22.0.4" type="device">
  <diagram name="Page-1" id="N1jnjhs2TgwopPefJ2I7">
    <mxGraphModel dx="1363" dy="3126" grid="1" gridSize="10" guides="1" tooltips="1" connect="1" arrows="1" fold="1" page="1" pageScale="1" pageWidth="850" pageHeight="1100" math="0" shadow="0">
      <root>
        <mxCell id="0" />
        <mxCell id="1" parent="0" />
        <mxCell id="KQO8Vrs6MrCLd3Il5mY6-126" value="" style="rounded=0;whiteSpace=wrap;html=1;" vertex="1" parent="1">
          <mxGeometry x="246" y="750" width="630" height="390" as="geometry" />
        </mxCell>
        <mxCell id="KQO8Vrs6MrCLd3Il5mY6-127" value="a rather long time for the next index row in the outside for loop" style="rounded=0;whiteSpace=wrap;html=1;" vertex="1" parent="1">
          <mxGeometry x="323.5" y="780" width="515" height="142" as="geometry" />
        </mxCell>
        <mxCell id="KQO8Vrs6MrCLd3Il5mY6-128" value="" style="rounded=0;whiteSpace=wrap;html=1;" vertex="1" parent="1">
          <mxGeometry x="341" y="792.5" width="30" height="30" as="geometry" />
        </mxCell>
        <mxCell id="KQO8Vrs6MrCLd3Il5mY6-129" value="" style="rounded=0;whiteSpace=wrap;html=1;" vertex="1" parent="1">
          <mxGeometry x="371" y="792.5" width="30" height="30" as="geometry" />
        </mxCell>
        <mxCell id="KQO8Vrs6MrCLd3Il5mY6-130" value="" style="rounded=0;whiteSpace=wrap;html=1;" vertex="1" parent="1">
          <mxGeometry x="401" y="792.5" width="30" height="30" as="geometry" />
        </mxCell>
        <mxCell id="KQO8Vrs6MrCLd3Il5mY6-131" value="" style="rounded=0;whiteSpace=wrap;html=1;" vertex="1" parent="1">
          <mxGeometry x="431" y="792.5" width="30" height="30" as="geometry" />
        </mxCell>
        <mxCell id="KQO8Vrs6MrCLd3Il5mY6-132" value="" style="rounded=0;whiteSpace=wrap;html=1;" vertex="1" parent="1">
          <mxGeometry x="461" y="792.5" width="30" height="30" as="geometry" />
        </mxCell>
        <mxCell id="KQO8Vrs6MrCLd3Il5mY6-133" value="" style="rounded=0;whiteSpace=wrap;html=1;" vertex="1" parent="1">
          <mxGeometry x="491" y="792.5" width="30" height="30" as="geometry" />
        </mxCell>
        <mxCell id="KQO8Vrs6MrCLd3Il5mY6-134" value="" style="rounded=0;whiteSpace=wrap;html=1;" vertex="1" parent="1">
          <mxGeometry x="521" y="792.5" width="30" height="30" as="geometry" />
        </mxCell>
        <mxCell id="KQO8Vrs6MrCLd3Il5mY6-135" value="" style="rounded=0;whiteSpace=wrap;html=1;" vertex="1" parent="1">
          <mxGeometry x="611" y="792.5" width="30" height="30" as="geometry" />
        </mxCell>
        <mxCell id="KQO8Vrs6MrCLd3Il5mY6-136" value="" style="rounded=0;whiteSpace=wrap;html=1;" vertex="1" parent="1">
          <mxGeometry x="641" y="792.5" width="30" height="30" as="geometry" />
        </mxCell>
        <mxCell id="KQO8Vrs6MrCLd3Il5mY6-137" value="" style="rounded=0;whiteSpace=wrap;html=1;" vertex="1" parent="1">
          <mxGeometry x="671" y="792.5" width="30" height="30" as="geometry" />
        </mxCell>
        <mxCell id="KQO8Vrs6MrCLd3Il5mY6-138" value="" style="rounded=0;whiteSpace=wrap;html=1;" vertex="1" parent="1">
          <mxGeometry x="701" y="792.5" width="30" height="30" as="geometry" />
        </mxCell>
        <mxCell id="KQO8Vrs6MrCLd3Il5mY6-139" value="" style="rounded=0;whiteSpace=wrap;html=1;" vertex="1" parent="1">
          <mxGeometry x="731" y="792.5" width="30" height="30" as="geometry" />
        </mxCell>
        <mxCell id="KQO8Vrs6MrCLd3Il5mY6-140" value="" style="rounded=0;whiteSpace=wrap;html=1;" vertex="1" parent="1">
          <mxGeometry x="761" y="792.5" width="30" height="30" as="geometry" />
        </mxCell>
        <mxCell id="KQO8Vrs6MrCLd3Il5mY6-141" value="" style="rounded=0;whiteSpace=wrap;html=1;" vertex="1" parent="1">
          <mxGeometry x="791" y="792.5" width="30" height="30" as="geometry" />
        </mxCell>
        <mxCell id="KQO8Vrs6MrCLd3Il5mY6-142" value="..." style="text;html=1;align=center;verticalAlign=middle;resizable=0;points=[];autosize=1;strokeColor=none;fillColor=none;" vertex="1" parent="1">
          <mxGeometry x="561" y="792.5" width="30" height="30" as="geometry" />
        </mxCell>
        <mxCell id="KQO8Vrs6MrCLd3Il5mY6-143" value="" style="rounded=0;whiteSpace=wrap;html=1;" vertex="1" parent="1">
          <mxGeometry x="341" y="879.5" width="30" height="30" as="geometry" />
        </mxCell>
        <mxCell id="KQO8Vrs6MrCLd3Il5mY6-144" value="" style="rounded=0;whiteSpace=wrap;html=1;" vertex="1" parent="1">
          <mxGeometry x="371" y="879.5" width="30" height="30" as="geometry" />
        </mxCell>
        <mxCell id="KQO8Vrs6MrCLd3Il5mY6-145" value="" style="rounded=0;whiteSpace=wrap;html=1;" vertex="1" parent="1">
          <mxGeometry x="401" y="879.5" width="30" height="30" as="geometry" />
        </mxCell>
        <mxCell id="KQO8Vrs6MrCLd3Il5mY6-146" value="" style="rounded=0;whiteSpace=wrap;html=1;" vertex="1" parent="1">
          <mxGeometry x="431" y="879.5" width="30" height="30" as="geometry" />
        </mxCell>
        <mxCell id="KQO8Vrs6MrCLd3Il5mY6-147" value="" style="rounded=0;whiteSpace=wrap;html=1;" vertex="1" parent="1">
          <mxGeometry x="461" y="879.5" width="30" height="30" as="geometry" />
        </mxCell>
        <mxCell id="KQO8Vrs6MrCLd3Il5mY6-148" value="" style="rounded=0;whiteSpace=wrap;html=1;" vertex="1" parent="1">
          <mxGeometry x="491" y="879.5" width="30" height="30" as="geometry" />
        </mxCell>
        <mxCell id="KQO8Vrs6MrCLd3Il5mY6-149" value="" style="rounded=0;whiteSpace=wrap;html=1;" vertex="1" parent="1">
          <mxGeometry x="521" y="879.5" width="30" height="30" as="geometry" />
        </mxCell>
        <mxCell id="KQO8Vrs6MrCLd3Il5mY6-150" value="" style="rounded=0;whiteSpace=wrap;html=1;" vertex="1" parent="1">
          <mxGeometry x="611" y="879.5" width="30" height="30" as="geometry" />
        </mxCell>
        <mxCell id="KQO8Vrs6MrCLd3Il5mY6-151" value="" style="rounded=0;whiteSpace=wrap;html=1;" vertex="1" parent="1">
          <mxGeometry x="641" y="879.5" width="30" height="30" as="geometry" />
        </mxCell>
        <mxCell id="KQO8Vrs6MrCLd3Il5mY6-152" value="" style="rounded=0;whiteSpace=wrap;html=1;" vertex="1" parent="1">
          <mxGeometry x="671" y="879.5" width="30" height="30" as="geometry" />
        </mxCell>
        <mxCell id="KQO8Vrs6MrCLd3Il5mY6-153" value="" style="rounded=0;whiteSpace=wrap;html=1;" vertex="1" parent="1">
          <mxGeometry x="701" y="879.5" width="30" height="30" as="geometry" />
        </mxCell>
        <mxCell id="KQO8Vrs6MrCLd3Il5mY6-154" value="" style="rounded=0;whiteSpace=wrap;html=1;" vertex="1" parent="1">
          <mxGeometry x="731" y="879.5" width="30" height="30" as="geometry" />
        </mxCell>
        <mxCell id="KQO8Vrs6MrCLd3Il5mY6-155" value="" style="rounded=0;whiteSpace=wrap;html=1;" vertex="1" parent="1">
          <mxGeometry x="761" y="879.5" width="30" height="30" as="geometry" />
        </mxCell>
        <mxCell id="KQO8Vrs6MrCLd3Il5mY6-156" value="" style="rounded=0;whiteSpace=wrap;html=1;" vertex="1" parent="1">
          <mxGeometry x="791" y="879.5" width="30" height="30" as="geometry" />
        </mxCell>
        <mxCell id="KQO8Vrs6MrCLd3Il5mY6-157" value="..." style="text;html=1;align=center;verticalAlign=middle;resizable=0;points=[];autosize=1;strokeColor=none;fillColor=none;" vertex="1" parent="1">
          <mxGeometry x="561" y="879.5" width="30" height="30" as="geometry" />
        </mxCell>
        <mxCell id="KQO8Vrs6MrCLd3Il5mY6-158" value=".&lt;br&gt;.&lt;br&gt;.&lt;br&gt;" style="text;html=1;align=center;verticalAlign=middle;resizable=0;points=[];autosize=1;strokeColor=none;fillColor=none;" vertex="1" parent="1">
          <mxGeometry x="456" y="822.5" width="30" height="60" as="geometry" />
        </mxCell>
        <mxCell id="KQO8Vrs6MrCLd3Il5mY6-159" value=".&lt;br&gt;.&lt;br&gt;.&lt;br&gt;" style="text;html=1;align=center;verticalAlign=middle;resizable=0;points=[];autosize=1;strokeColor=none;fillColor=none;" vertex="1" parent="1">
          <mxGeometry x="711" y="819.5" width="30" height="60" as="geometry" />
        </mxCell>
        <mxCell id="KQO8Vrs6MrCLd3Il5mY6-160" value="task 1" style="text;html=1;align=center;verticalAlign=middle;resizable=0;points=[];autosize=1;strokeColor=none;fillColor=none;" vertex="1" parent="1">
          <mxGeometry x="266" y="837.5" width="60" height="30" as="geometry" />
        </mxCell>
        <mxCell id="KQO8Vrs6MrCLd3Il5mY6-161" value="..." style="text;html=1;align=center;verticalAlign=middle;resizable=0;points=[];autosize=1;strokeColor=none;fillColor=none;" vertex="1" parent="1">
          <mxGeometry x="561" y="948" width="30" height="30" as="geometry" />
        </mxCell>
        <mxCell id="KQO8Vrs6MrCLd3Il5mY6-162" value="" style="rounded=0;whiteSpace=wrap;html=1;" vertex="1" parent="1">
          <mxGeometry x="323.5" y="978" width="515" height="142" as="geometry" />
        </mxCell>
        <mxCell id="KQO8Vrs6MrCLd3Il5mY6-163" value="" style="rounded=0;whiteSpace=wrap;html=1;" vertex="1" parent="1">
          <mxGeometry x="341" y="990.5" width="30" height="30" as="geometry" />
        </mxCell>
        <mxCell id="KQO8Vrs6MrCLd3Il5mY6-164" value="" style="rounded=0;whiteSpace=wrap;html=1;" vertex="1" parent="1">
          <mxGeometry x="371" y="990.5" width="30" height="30" as="geometry" />
        </mxCell>
        <mxCell id="KQO8Vrs6MrCLd3Il5mY6-165" value="" style="rounded=0;whiteSpace=wrap;html=1;" vertex="1" parent="1">
          <mxGeometry x="401" y="990.5" width="30" height="30" as="geometry" />
        </mxCell>
        <mxCell id="KQO8Vrs6MrCLd3Il5mY6-166" value="" style="rounded=0;whiteSpace=wrap;html=1;" vertex="1" parent="1">
          <mxGeometry x="431" y="990.5" width="30" height="30" as="geometry" />
        </mxCell>
        <mxCell id="KQO8Vrs6MrCLd3Il5mY6-167" value="" style="rounded=0;whiteSpace=wrap;html=1;" vertex="1" parent="1">
          <mxGeometry x="461" y="990.5" width="30" height="30" as="geometry" />
        </mxCell>
        <mxCell id="KQO8Vrs6MrCLd3Il5mY6-168" value="" style="rounded=0;whiteSpace=wrap;html=1;" vertex="1" parent="1">
          <mxGeometry x="491" y="990.5" width="30" height="30" as="geometry" />
        </mxCell>
        <mxCell id="KQO8Vrs6MrCLd3Il5mY6-169" value="" style="rounded=0;whiteSpace=wrap;html=1;" vertex="1" parent="1">
          <mxGeometry x="521" y="990.5" width="30" height="30" as="geometry" />
        </mxCell>
        <mxCell id="KQO8Vrs6MrCLd3Il5mY6-170" value="" style="rounded=0;whiteSpace=wrap;html=1;" vertex="1" parent="1">
          <mxGeometry x="611" y="990.5" width="30" height="30" as="geometry" />
        </mxCell>
        <mxCell id="KQO8Vrs6MrCLd3Il5mY6-171" value="" style="rounded=0;whiteSpace=wrap;html=1;" vertex="1" parent="1">
          <mxGeometry x="641" y="990.5" width="30" height="30" as="geometry" />
        </mxCell>
        <mxCell id="KQO8Vrs6MrCLd3Il5mY6-172" value="" style="rounded=0;whiteSpace=wrap;html=1;" vertex="1" parent="1">
          <mxGeometry x="671" y="990.5" width="30" height="30" as="geometry" />
        </mxCell>
        <mxCell id="KQO8Vrs6MrCLd3Il5mY6-173" value="" style="rounded=0;whiteSpace=wrap;html=1;" vertex="1" parent="1">
          <mxGeometry x="701" y="990.5" width="30" height="30" as="geometry" />
        </mxCell>
        <mxCell id="KQO8Vrs6MrCLd3Il5mY6-174" value="" style="rounded=0;whiteSpace=wrap;html=1;" vertex="1" parent="1">
          <mxGeometry x="731" y="990.5" width="30" height="30" as="geometry" />
        </mxCell>
        <mxCell id="KQO8Vrs6MrCLd3Il5mY6-175" value="" style="rounded=0;whiteSpace=wrap;html=1;" vertex="1" parent="1">
          <mxGeometry x="761" y="990.5" width="30" height="30" as="geometry" />
        </mxCell>
        <mxCell id="KQO8Vrs6MrCLd3Il5mY6-176" value="" style="rounded=0;whiteSpace=wrap;html=1;" vertex="1" parent="1">
          <mxGeometry x="791" y="990.5" width="30" height="30" as="geometry" />
        </mxCell>
        <mxCell id="KQO8Vrs6MrCLd3Il5mY6-177" value="..." style="text;html=1;align=center;verticalAlign=middle;resizable=0;points=[];autosize=1;strokeColor=none;fillColor=none;" vertex="1" parent="1">
          <mxGeometry x="561" y="990.5" width="30" height="30" as="geometry" />
        </mxCell>
        <mxCell id="KQO8Vrs6MrCLd3Il5mY6-178" value="" style="rounded=0;whiteSpace=wrap;html=1;" vertex="1" parent="1">
          <mxGeometry x="341" y="1077.5" width="30" height="30" as="geometry" />
        </mxCell>
        <mxCell id="KQO8Vrs6MrCLd3Il5mY6-179" value="" style="rounded=0;whiteSpace=wrap;html=1;" vertex="1" parent="1">
          <mxGeometry x="371" y="1077.5" width="30" height="30" as="geometry" />
        </mxCell>
        <mxCell id="KQO8Vrs6MrCLd3Il5mY6-180" value="" style="rounded=0;whiteSpace=wrap;html=1;" vertex="1" parent="1">
          <mxGeometry x="401" y="1077.5" width="30" height="30" as="geometry" />
        </mxCell>
        <mxCell id="KQO8Vrs6MrCLd3Il5mY6-181" value="" style="rounded=0;whiteSpace=wrap;html=1;" vertex="1" parent="1">
          <mxGeometry x="431" y="1077.5" width="30" height="30" as="geometry" />
        </mxCell>
        <mxCell id="KQO8Vrs6MrCLd3Il5mY6-182" value="" style="rounded=0;whiteSpace=wrap;html=1;" vertex="1" parent="1">
          <mxGeometry x="461" y="1077.5" width="30" height="30" as="geometry" />
        </mxCell>
        <mxCell id="KQO8Vrs6MrCLd3Il5mY6-183" value="" style="rounded=0;whiteSpace=wrap;html=1;" vertex="1" parent="1">
          <mxGeometry x="491" y="1077.5" width="30" height="30" as="geometry" />
        </mxCell>
        <mxCell id="KQO8Vrs6MrCLd3Il5mY6-184" value="" style="rounded=0;whiteSpace=wrap;html=1;" vertex="1" parent="1">
          <mxGeometry x="521" y="1077.5" width="30" height="30" as="geometry" />
        </mxCell>
        <mxCell id="KQO8Vrs6MrCLd3Il5mY6-185" value="" style="rounded=0;whiteSpace=wrap;html=1;" vertex="1" parent="1">
          <mxGeometry x="611" y="1077.5" width="30" height="30" as="geometry" />
        </mxCell>
        <mxCell id="KQO8Vrs6MrCLd3Il5mY6-186" value="" style="rounded=0;whiteSpace=wrap;html=1;" vertex="1" parent="1">
          <mxGeometry x="641" y="1077.5" width="30" height="30" as="geometry" />
        </mxCell>
        <mxCell id="KQO8Vrs6MrCLd3Il5mY6-187" value="" style="rounded=0;whiteSpace=wrap;html=1;" vertex="1" parent="1">
          <mxGeometry x="671" y="1077.5" width="30" height="30" as="geometry" />
        </mxCell>
        <mxCell id="KQO8Vrs6MrCLd3Il5mY6-188" value="" style="rounded=0;whiteSpace=wrap;html=1;" vertex="1" parent="1">
          <mxGeometry x="701" y="1077.5" width="30" height="30" as="geometry" />
        </mxCell>
        <mxCell id="KQO8Vrs6MrCLd3Il5mY6-189" value="" style="rounded=0;whiteSpace=wrap;html=1;" vertex="1" parent="1">
          <mxGeometry x="731" y="1077.5" width="30" height="30" as="geometry" />
        </mxCell>
        <mxCell id="KQO8Vrs6MrCLd3Il5mY6-190" value="" style="rounded=0;whiteSpace=wrap;html=1;" vertex="1" parent="1">
          <mxGeometry x="761" y="1077.5" width="30" height="30" as="geometry" />
        </mxCell>
        <mxCell id="KQO8Vrs6MrCLd3Il5mY6-191" value="" style="rounded=0;whiteSpace=wrap;html=1;" vertex="1" parent="1">
          <mxGeometry x="791" y="1077.5" width="30" height="30" as="geometry" />
        </mxCell>
        <mxCell id="KQO8Vrs6MrCLd3Il5mY6-192" value="..." style="text;html=1;align=center;verticalAlign=middle;resizable=0;points=[];autosize=1;strokeColor=none;fillColor=none;" vertex="1" parent="1">
          <mxGeometry x="561" y="1077.5" width="30" height="30" as="geometry" />
        </mxCell>
        <mxCell id="KQO8Vrs6MrCLd3Il5mY6-193" value=".&lt;br&gt;.&lt;br&gt;.&lt;br&gt;" style="text;html=1;align=center;verticalAlign=middle;resizable=0;points=[];autosize=1;strokeColor=none;fillColor=none;" vertex="1" parent="1">
          <mxGeometry x="456" y="1020.5" width="30" height="60" as="geometry" />
        </mxCell>
        <mxCell id="KQO8Vrs6MrCLd3Il5mY6-194" value=".&lt;br&gt;.&lt;br&gt;.&lt;br&gt;" style="text;html=1;align=center;verticalAlign=middle;resizable=0;points=[];autosize=1;strokeColor=none;fillColor=none;" vertex="1" parent="1">
          <mxGeometry x="711" y="1017.5" width="30" height="60" as="geometry" />
        </mxCell>
        <mxCell id="KQO8Vrs6MrCLd3Il5mY6-195" value="task n" style="text;html=1;align=center;verticalAlign=middle;resizable=0;points=[];autosize=1;strokeColor=none;fillColor=none;" vertex="1" parent="1">
          <mxGeometry x="266" y="1035.5" width="60" height="30" as="geometry" />
        </mxCell>
        <mxCell id="KQO8Vrs6MrCLd3Il5mY6-196" value="Whole Image" style="text;html=1;align=center;verticalAlign=middle;resizable=0;points=[];autosize=1;strokeColor=none;fillColor=none;" vertex="1" parent="1">
          <mxGeometry x="501" y="710" width="90" height="30" as="geometry" />
        </mxCell>
        <mxCell id="KQO8Vrs6MrCLd3Il5mY6-197" value="" style="shape=curlyBracket;whiteSpace=wrap;html=1;rounded=1;labelPosition=left;verticalLabelPosition=middle;align=right;verticalAlign=middle;rotation=-90;" vertex="1" parent="1">
          <mxGeometry x="571" y="590" width="20" height="480" as="geometry" />
        </mxCell>
        <mxCell id="KQO8Vrs6MrCLd3Il5mY6-300" value="a rather long time for the next index row in the outside for loop" style="rounded=0;whiteSpace=wrap;html=1;" vertex="1" parent="1">
          <mxGeometry x="342.5" y="1260" width="515" height="142" as="geometry" />
        </mxCell>
        <mxCell id="KQO8Vrs6MrCLd3Il5mY6-301" value="" style="rounded=0;whiteSpace=wrap;html=1;" vertex="1" parent="1">
          <mxGeometry x="360" y="1272.5" width="30" height="30" as="geometry" />
        </mxCell>
        <mxCell id="KQO8Vrs6MrCLd3Il5mY6-302" value="" style="rounded=0;whiteSpace=wrap;html=1;" vertex="1" parent="1">
          <mxGeometry x="390" y="1272.5" width="30" height="30" as="geometry" />
        </mxCell>
        <mxCell id="KQO8Vrs6MrCLd3Il5mY6-303" value="" style="rounded=0;whiteSpace=wrap;html=1;" vertex="1" parent="1">
          <mxGeometry x="420" y="1272.5" width="30" height="30" as="geometry" />
        </mxCell>
        <mxCell id="KQO8Vrs6MrCLd3Il5mY6-304" value="" style="rounded=0;whiteSpace=wrap;html=1;" vertex="1" parent="1">
          <mxGeometry x="450" y="1272.5" width="30" height="30" as="geometry" />
        </mxCell>
        <mxCell id="KQO8Vrs6MrCLd3Il5mY6-305" value="" style="rounded=0;whiteSpace=wrap;html=1;" vertex="1" parent="1">
          <mxGeometry x="480" y="1272.5" width="30" height="30" as="geometry" />
        </mxCell>
        <mxCell id="KQO8Vrs6MrCLd3Il5mY6-306" value="" style="rounded=0;whiteSpace=wrap;html=1;" vertex="1" parent="1">
          <mxGeometry x="510" y="1272.5" width="30" height="30" as="geometry" />
        </mxCell>
        <mxCell id="KQO8Vrs6MrCLd3Il5mY6-307" value="" style="rounded=0;whiteSpace=wrap;html=1;" vertex="1" parent="1">
          <mxGeometry x="540" y="1272.5" width="30" height="30" as="geometry" />
        </mxCell>
        <mxCell id="KQO8Vrs6MrCLd3Il5mY6-308" value="" style="rounded=0;whiteSpace=wrap;html=1;" vertex="1" parent="1">
          <mxGeometry x="630" y="1272.5" width="30" height="30" as="geometry" />
        </mxCell>
        <mxCell id="KQO8Vrs6MrCLd3Il5mY6-309" value="" style="rounded=0;whiteSpace=wrap;html=1;" vertex="1" parent="1">
          <mxGeometry x="660" y="1272.5" width="30" height="30" as="geometry" />
        </mxCell>
        <mxCell id="KQO8Vrs6MrCLd3Il5mY6-310" value="" style="rounded=0;whiteSpace=wrap;html=1;" vertex="1" parent="1">
          <mxGeometry x="690" y="1272.5" width="30" height="30" as="geometry" />
        </mxCell>
        <mxCell id="KQO8Vrs6MrCLd3Il5mY6-311" value="" style="rounded=0;whiteSpace=wrap;html=1;" vertex="1" parent="1">
          <mxGeometry x="720" y="1272.5" width="30" height="30" as="geometry" />
        </mxCell>
        <mxCell id="KQO8Vrs6MrCLd3Il5mY6-312" value="" style="rounded=0;whiteSpace=wrap;html=1;" vertex="1" parent="1">
          <mxGeometry x="750" y="1272.5" width="30" height="30" as="geometry" />
        </mxCell>
        <mxCell id="KQO8Vrs6MrCLd3Il5mY6-313" value="" style="rounded=0;whiteSpace=wrap;html=1;" vertex="1" parent="1">
          <mxGeometry x="780" y="1272.5" width="30" height="30" as="geometry" />
        </mxCell>
        <mxCell id="KQO8Vrs6MrCLd3Il5mY6-314" value="" style="rounded=0;whiteSpace=wrap;html=1;" vertex="1" parent="1">
          <mxGeometry x="810" y="1272.5" width="30" height="30" as="geometry" />
        </mxCell>
        <mxCell id="KQO8Vrs6MrCLd3Il5mY6-315" value="..." style="text;html=1;align=center;verticalAlign=middle;resizable=0;points=[];autosize=1;strokeColor=none;fillColor=none;" vertex="1" parent="1">
          <mxGeometry x="580" y="1272.5" width="30" height="30" as="geometry" />
        </mxCell>
        <mxCell id="KQO8Vrs6MrCLd3Il5mY6-316" value="" style="rounded=0;whiteSpace=wrap;html=1;" vertex="1" parent="1">
          <mxGeometry x="360" y="1359.5" width="30" height="30" as="geometry" />
        </mxCell>
        <mxCell id="KQO8Vrs6MrCLd3Il5mY6-317" value="" style="rounded=0;whiteSpace=wrap;html=1;" vertex="1" parent="1">
          <mxGeometry x="390" y="1359.5" width="30" height="30" as="geometry" />
        </mxCell>
        <mxCell id="KQO8Vrs6MrCLd3Il5mY6-318" value="" style="rounded=0;whiteSpace=wrap;html=1;" vertex="1" parent="1">
          <mxGeometry x="420" y="1359.5" width="30" height="30" as="geometry" />
        </mxCell>
        <mxCell id="KQO8Vrs6MrCLd3Il5mY6-319" value="" style="rounded=0;whiteSpace=wrap;html=1;" vertex="1" parent="1">
          <mxGeometry x="450" y="1359.5" width="30" height="30" as="geometry" />
        </mxCell>
        <mxCell id="KQO8Vrs6MrCLd3Il5mY6-320" value="" style="rounded=0;whiteSpace=wrap;html=1;" vertex="1" parent="1">
          <mxGeometry x="480" y="1359.5" width="30" height="30" as="geometry" />
        </mxCell>
        <mxCell id="KQO8Vrs6MrCLd3Il5mY6-321" value="" style="rounded=0;whiteSpace=wrap;html=1;" vertex="1" parent="1">
          <mxGeometry x="510" y="1359.5" width="30" height="30" as="geometry" />
        </mxCell>
        <mxCell id="KQO8Vrs6MrCLd3Il5mY6-322" value="" style="rounded=0;whiteSpace=wrap;html=1;" vertex="1" parent="1">
          <mxGeometry x="540" y="1359.5" width="30" height="30" as="geometry" />
        </mxCell>
        <mxCell id="KQO8Vrs6MrCLd3Il5mY6-323" value="" style="rounded=0;whiteSpace=wrap;html=1;" vertex="1" parent="1">
          <mxGeometry x="630" y="1359.5" width="30" height="30" as="geometry" />
        </mxCell>
        <mxCell id="KQO8Vrs6MrCLd3Il5mY6-324" value="" style="rounded=0;whiteSpace=wrap;html=1;" vertex="1" parent="1">
          <mxGeometry x="660" y="1359.5" width="30" height="30" as="geometry" />
        </mxCell>
        <mxCell id="KQO8Vrs6MrCLd3Il5mY6-325" value="" style="rounded=0;whiteSpace=wrap;html=1;" vertex="1" parent="1">
          <mxGeometry x="690" y="1359.5" width="30" height="30" as="geometry" />
        </mxCell>
        <mxCell id="KQO8Vrs6MrCLd3Il5mY6-326" value="" style="rounded=0;whiteSpace=wrap;html=1;" vertex="1" parent="1">
          <mxGeometry x="720" y="1359.5" width="30" height="30" as="geometry" />
        </mxCell>
        <mxCell id="KQO8Vrs6MrCLd3Il5mY6-327" value="" style="rounded=0;whiteSpace=wrap;html=1;" vertex="1" parent="1">
          <mxGeometry x="750" y="1359.5" width="30" height="30" as="geometry" />
        </mxCell>
        <mxCell id="KQO8Vrs6MrCLd3Il5mY6-328" value="" style="rounded=0;whiteSpace=wrap;html=1;" vertex="1" parent="1">
          <mxGeometry x="780" y="1359.5" width="30" height="30" as="geometry" />
        </mxCell>
        <mxCell id="KQO8Vrs6MrCLd3Il5mY6-329" value="" style="rounded=0;whiteSpace=wrap;html=1;" vertex="1" parent="1">
          <mxGeometry x="810" y="1359.5" width="30" height="30" as="geometry" />
        </mxCell>
        <mxCell id="KQO8Vrs6MrCLd3Il5mY6-330" value="..." style="text;html=1;align=center;verticalAlign=middle;resizable=0;points=[];autosize=1;strokeColor=none;fillColor=none;" vertex="1" parent="1">
          <mxGeometry x="580" y="1359.5" width="30" height="30" as="geometry" />
        </mxCell>
        <mxCell id="KQO8Vrs6MrCLd3Il5mY6-331" value=".&lt;br&gt;.&lt;br&gt;.&lt;br&gt;" style="text;html=1;align=center;verticalAlign=middle;resizable=0;points=[];autosize=1;strokeColor=none;fillColor=none;" vertex="1" parent="1">
          <mxGeometry x="475" y="1302.5" width="30" height="60" as="geometry" />
        </mxCell>
        <mxCell id="KQO8Vrs6MrCLd3Il5mY6-332" value=".&lt;br&gt;.&lt;br&gt;.&lt;br&gt;" style="text;html=1;align=center;verticalAlign=middle;resizable=0;points=[];autosize=1;strokeColor=none;fillColor=none;" vertex="1" parent="1">
          <mxGeometry x="730" y="1299.5" width="30" height="60" as="geometry" />
        </mxCell>
        <mxCell id="KQO8Vrs6MrCLd3Il5mY6-333" value="" style="shape=curlyBracket;whiteSpace=wrap;html=1;rounded=1;labelPosition=left;verticalLabelPosition=middle;align=right;verticalAlign=middle;rotation=-90;" vertex="1" parent="1">
          <mxGeometry x="590" y="1070" width="20" height="480" as="geometry" />
        </mxCell>
        <mxCell id="KQO8Vrs6MrCLd3Il5mY6-334" value="" style="rounded=0;whiteSpace=wrap;html=1;" vertex="1" parent="1">
          <mxGeometry x="260" y="1190" width="30" height="30" as="geometry" />
        </mxCell>
        <mxCell id="KQO8Vrs6MrCLd3Il5mY6-335" value="" style="rounded=0;whiteSpace=wrap;html=1;" vertex="1" parent="1">
          <mxGeometry x="290" y="1190" width="30" height="30" as="geometry" />
        </mxCell>
        <mxCell id="KQO8Vrs6MrCLd3Il5mY6-336" value="" style="rounded=0;whiteSpace=wrap;html=1;" vertex="1" parent="1">
          <mxGeometry x="320" y="1190" width="30" height="30" as="geometry" />
        </mxCell>
        <mxCell id="KQO8Vrs6MrCLd3Il5mY6-337" value="" style="rounded=0;whiteSpace=wrap;html=1;" vertex="1" parent="1">
          <mxGeometry x="350" y="1190" width="30" height="30" as="geometry" />
        </mxCell>
        <mxCell id="KQO8Vrs6MrCLd3Il5mY6-338" value="" style="rounded=0;whiteSpace=wrap;html=1;" vertex="1" parent="1">
          <mxGeometry x="380" y="1190" width="30" height="30" as="geometry" />
        </mxCell>
        <mxCell id="KQO8Vrs6MrCLd3Il5mY6-339" value="" style="rounded=0;whiteSpace=wrap;html=1;" vertex="1" parent="1">
          <mxGeometry x="410" y="1190" width="30" height="30" as="geometry" />
        </mxCell>
        <mxCell id="KQO8Vrs6MrCLd3Il5mY6-340" value="" style="rounded=0;whiteSpace=wrap;html=1;" vertex="1" parent="1">
          <mxGeometry x="440" y="1190" width="30" height="30" as="geometry" />
        </mxCell>
        <mxCell id="KQO8Vrs6MrCLd3Il5mY6-341" value="" style="rounded=0;whiteSpace=wrap;html=1;" vertex="1" parent="1">
          <mxGeometry x="666" y="1190" width="30" height="30" as="geometry" />
        </mxCell>
        <mxCell id="KQO8Vrs6MrCLd3Il5mY6-342" value="" style="rounded=0;whiteSpace=wrap;html=1;" vertex="1" parent="1">
          <mxGeometry x="696" y="1190" width="30" height="30" as="geometry" />
        </mxCell>
        <mxCell id="KQO8Vrs6MrCLd3Il5mY6-343" value="" style="rounded=0;whiteSpace=wrap;html=1;" vertex="1" parent="1">
          <mxGeometry x="726" y="1190" width="30" height="30" as="geometry" />
        </mxCell>
        <mxCell id="KQO8Vrs6MrCLd3Il5mY6-344" value="" style="rounded=0;whiteSpace=wrap;html=1;" vertex="1" parent="1">
          <mxGeometry x="756" y="1190" width="30" height="30" as="geometry" />
        </mxCell>
        <mxCell id="KQO8Vrs6MrCLd3Il5mY6-345" value="" style="rounded=0;whiteSpace=wrap;html=1;" vertex="1" parent="1">
          <mxGeometry x="786" y="1190" width="30" height="30" as="geometry" />
        </mxCell>
        <mxCell id="KQO8Vrs6MrCLd3Il5mY6-346" value="" style="rounded=0;whiteSpace=wrap;html=1;" vertex="1" parent="1">
          <mxGeometry x="816" y="1190" width="30" height="30" as="geometry" />
        </mxCell>
        <mxCell id="KQO8Vrs6MrCLd3Il5mY6-347" value="" style="rounded=0;whiteSpace=wrap;html=1;" vertex="1" parent="1">
          <mxGeometry x="846" y="1190" width="30" height="30" as="geometry" />
        </mxCell>
        <mxCell id="KQO8Vrs6MrCLd3Il5mY6-349" value="one for loop" style="text;html=1;align=center;verticalAlign=middle;resizable=0;points=[];autosize=1;strokeColor=none;fillColor=none;" vertex="1" parent="1">
          <mxGeometry x="120" y="1190" width="90" height="30" as="geometry" />
        </mxCell>
        <mxCell id="KQO8Vrs6MrCLd3Il5mY6-351" value="two for loop" style="text;html=1;align=center;verticalAlign=middle;resizable=0;points=[];autosize=1;strokeColor=none;fillColor=none;" vertex="1" parent="1">
          <mxGeometry x="120" y="1288" width="90" height="30" as="geometry" />
        </mxCell>
        <mxCell id="KQO8Vrs6MrCLd3Il5mY6-356" value="" style="rounded=0;whiteSpace=wrap;html=1;" vertex="1" parent="1">
          <mxGeometry x="605" y="1190" width="30" height="30" as="geometry" />
        </mxCell>
        <mxCell id="KQO8Vrs6MrCLd3Il5mY6-357" value="" style="rounded=0;whiteSpace=wrap;html=1;" vertex="1" parent="1">
          <mxGeometry x="635" y="1190" width="30" height="30" as="geometry" />
        </mxCell>
        <mxCell id="KQO8Vrs6MrCLd3Il5mY6-358" value="" style="rounded=0;whiteSpace=wrap;html=1;" vertex="1" parent="1">
          <mxGeometry x="470" y="1190" width="30" height="30" as="geometry" />
        </mxCell>
        <mxCell id="KQO8Vrs6MrCLd3Il5mY6-359" value="" style="rounded=0;whiteSpace=wrap;html=1;" vertex="1" parent="1">
          <mxGeometry x="500" y="1190" width="30" height="30" as="geometry" />
        </mxCell>
        <mxCell id="KQO8Vrs6MrCLd3Il5mY6-361" value="......" style="text;html=1;align=center;verticalAlign=middle;resizable=0;points=[];autosize=1;strokeColor=none;fillColor=none;" vertex="1" parent="1">
          <mxGeometry x="550" y="1190" width="40" height="30" as="geometry" />
        </mxCell>
        <mxCell id="KQO8Vrs6MrCLd3Il5mY6-362" value="" style="endArrow=classic;html=1;rounded=0;exitX=0.5;exitY=1;exitDx=0;exitDy=0;entryX=0.5;entryY=0;entryDx=0;entryDy=0;" edge="1" parent="1" source="KQO8Vrs6MrCLd3Il5mY6-334" target="KQO8Vrs6MrCLd3Il5mY6-301">
          <mxGeometry width="50" height="50" relative="1" as="geometry">
            <mxPoint x="600" y="960" as="sourcePoint" />
            <mxPoint x="650" y="910" as="targetPoint" />
          </mxGeometry>
        </mxCell>
        <mxCell id="KQO8Vrs6MrCLd3Il5mY6-364" value="" style="endArrow=classic;html=1;rounded=0;exitX=0.5;exitY=1;exitDx=0;exitDy=0;entryX=0.5;entryY=0;entryDx=0;entryDy=0;" edge="1" parent="1" source="KQO8Vrs6MrCLd3Il5mY6-335" target="KQO8Vrs6MrCLd3Il5mY6-302">
          <mxGeometry width="50" height="50" relative="1" as="geometry">
            <mxPoint x="285" y="1230" as="sourcePoint" />
            <mxPoint x="385" y="1283" as="targetPoint" />
          </mxGeometry>
        </mxCell>
        <mxCell id="KQO8Vrs6MrCLd3Il5mY6-365" value="" style="endArrow=classic;html=1;rounded=0;exitX=0.5;exitY=1;exitDx=0;exitDy=0;entryX=0.5;entryY=0;entryDx=0;entryDy=0;" edge="1" parent="1" source="KQO8Vrs6MrCLd3Il5mY6-336" target="KQO8Vrs6MrCLd3Il5mY6-303">
          <mxGeometry width="50" height="50" relative="1" as="geometry">
            <mxPoint x="323" y="1230" as="sourcePoint" />
            <mxPoint x="415" y="1283" as="targetPoint" />
          </mxGeometry>
        </mxCell>
        <mxCell id="KQO8Vrs6MrCLd3Il5mY6-366" value="" style="endArrow=classic;html=1;rounded=0;exitX=0.5;exitY=1;exitDx=0;exitDy=0;entryX=0.5;entryY=0;entryDx=0;entryDy=0;" edge="1" parent="1">
          <mxGeometry width="50" height="50" relative="1" as="geometry">
            <mxPoint x="365" y="1220" as="sourcePoint" />
            <mxPoint x="465" y="1273" as="targetPoint" />
          </mxGeometry>
        </mxCell>
        <mxCell id="KQO8Vrs6MrCLd3Il5mY6-367" value="" style="endArrow=classic;html=1;rounded=0;exitX=0.5;exitY=1;exitDx=0;exitDy=0;entryX=0.5;entryY=0;entryDx=0;entryDy=0;" edge="1" parent="1">
          <mxGeometry width="50" height="50" relative="1" as="geometry">
            <mxPoint x="395" y="1220" as="sourcePoint" />
            <mxPoint x="495" y="1273" as="targetPoint" />
          </mxGeometry>
        </mxCell>
        <mxCell id="KQO8Vrs6MrCLd3Il5mY6-368" value="" style="endArrow=classic;html=1;rounded=0;exitX=0.5;exitY=1;exitDx=0;exitDy=0;entryX=0.5;entryY=0;entryDx=0;entryDy=0;" edge="1" parent="1">
          <mxGeometry width="50" height="50" relative="1" as="geometry">
            <mxPoint x="425" y="1220" as="sourcePoint" />
            <mxPoint x="525" y="1273" as="targetPoint" />
          </mxGeometry>
        </mxCell>
        <mxCell id="KQO8Vrs6MrCLd3Il5mY6-369" value="" style="endArrow=classic;html=1;rounded=0;exitX=0.5;exitY=1;exitDx=0;exitDy=0;entryX=0.5;entryY=0;entryDx=0;entryDy=0;" edge="1" parent="1" source="KQO8Vrs6MrCLd3Il5mY6-347" target="KQO8Vrs6MrCLd3Il5mY6-329">
          <mxGeometry width="50" height="50" relative="1" as="geometry">
            <mxPoint x="285" y="1230" as="sourcePoint" />
            <mxPoint x="385" y="1283" as="targetPoint" />
          </mxGeometry>
        </mxCell>
        <mxCell id="KQO8Vrs6MrCLd3Il5mY6-371" value="" style="endArrow=classic;html=1;rounded=0;exitX=0.5;exitY=1;exitDx=0;exitDy=0;entryX=0.5;entryY=0;entryDx=0;entryDy=0;" edge="1" parent="1">
          <mxGeometry width="50" height="50" relative="1" as="geometry">
            <mxPoint x="836" y="1219.5" as="sourcePoint" />
            <mxPoint x="800" y="1359.5" as="targetPoint" />
          </mxGeometry>
        </mxCell>
        <mxCell id="KQO8Vrs6MrCLd3Il5mY6-372" value="" style="endArrow=classic;html=1;rounded=0;exitX=0.5;exitY=1;exitDx=0;exitDy=0;entryX=0.5;entryY=0;entryDx=0;entryDy=0;" edge="1" parent="1" source="KQO8Vrs6MrCLd3Il5mY6-345" target="KQO8Vrs6MrCLd3Il5mY6-327">
          <mxGeometry width="50" height="50" relative="1" as="geometry">
            <mxPoint x="846" y="1229.5" as="sourcePoint" />
            <mxPoint x="810" y="1369.5" as="targetPoint" />
          </mxGeometry>
        </mxCell>
        <mxCell id="KQO8Vrs6MrCLd3Il5mY6-373" value="" style="endArrow=classic;html=1;rounded=0;exitX=0.5;exitY=1;exitDx=0;exitDy=0;entryX=0.5;entryY=0;entryDx=0;entryDy=0;" edge="1" parent="1">
          <mxGeometry width="50" height="50" relative="1" as="geometry">
            <mxPoint x="765" y="1220.5" as="sourcePoint" />
            <mxPoint x="729" y="1360.5" as="targetPoint" />
          </mxGeometry>
        </mxCell>
        <mxCell id="KQO8Vrs6MrCLd3Il5mY6-374" value="" style="endArrow=classic;html=1;rounded=0;exitX=0.5;exitY=1;exitDx=0;exitDy=0;entryX=0.5;entryY=0;entryDx=0;entryDy=0;" edge="1" parent="1">
          <mxGeometry width="50" height="50" relative="1" as="geometry">
            <mxPoint x="740" y="1220" as="sourcePoint" />
            <mxPoint x="704" y="1360" as="targetPoint" />
          </mxGeometry>
        </mxCell>
        <mxCell id="KQO8Vrs6MrCLd3Il5mY6-375" value="" style="endArrow=classic;html=1;rounded=0;exitX=0.5;exitY=1;exitDx=0;exitDy=0;entryX=0.5;entryY=0;entryDx=0;entryDy=0;" edge="1" parent="1">
          <mxGeometry width="50" height="50" relative="1" as="geometry">
            <mxPoint x="705" y="1220.5" as="sourcePoint" />
            <mxPoint x="669" y="1360.5" as="targetPoint" />
          </mxGeometry>
        </mxCell>
        <mxCell id="KQO8Vrs6MrCLd3Il5mY6-376" value="each arrow is one computation used to redirect the loaction for convolution" style="text;html=1;align=center;verticalAlign=middle;resizable=0;points=[];autosize=1;strokeColor=none;fillColor=none;" vertex="1" parent="1">
          <mxGeometry x="336" y="1420" width="420" height="30" as="geometry" />
        </mxCell>
      </root>
    </mxGraphModel>
  </diagram>
</mxfile>
